# xmcd CD database file
#
# Track frame offsets:
#	150
#	29645
#	54247
#	89270
#	104876
#	128312
#	160712
#	187960
#	208063
#	231977
#
# Disc length: 3355 seconds
#
# Revision: 0
# Processed by: cddbd v1.5.2PL0 Copyright (c) Steve Scherf et al.
# Submitted via: CDex 1.51
#
DISCID=810d190a
DTITLE=Pat Metheny - What's It All About
DYEAR=2011
DGENRE=Jazz
TTITLE0=The Sound Of Silence
TTITLE1=Cherish
TTITLE2=Alfie
TTITLE3=Pipeline
TTITLE4=Garota De Ipanema
TTITLE5=Rainy Days And Mondays
TTITLE6=That's The Way I've Always Heard It Sould Be
TTITLE7=Slow Hot Wind
TTITLE8=Betcha By Golly, Wow
TTITLE9=And I Love Her
EXTD=YEAR: 2011
EXTT0=
EXTT1=
EXTT2=
EXTT3=
EXTT4=
EXTT5=
EXTT6=
EXTT7=
EXTT8=
EXTT9=
PLAYORDER=
